# xmcd
#
# Track frame offsets:
# 183
# 15738
# 30628
# 42398
# 57965
# 71685
# 84500
# 93103
# 103960
# 114300
# 125890
# 137093
# 147820
# 161518
#
# Disc length: 2312 seconds
#
#
# Revision: 4
# Processed by: cddbd v1.5.2PL0 Copyright (c) Steve Scherf et al.
# Submitted via: FreeRIP 2.52 
#
DISCID=c009060e
DTITLE=Various Artist - The Golden Country Collection
DYEAR=1900
DGENRE=Country
TTITLE0=Kenny Rogers - My Washington Woman
TTITLE1=Lynn Anderson - Desperado
TTITLE2=Johnny Cash - Port Of Lonely Hearts
TTITLE3=Oak Ridge Boys - Father Alone
TTITLE4=Jerry Lee Lewis - Cold, Cold Heart
TTITLE5=Bobby Bare - Tender Years
TTITLE6=Waylon Jennings - Abilene
TTITLE7=George Jones - I'll Share My World With You
TTITLE8=Kenny Rogers - Ticket To Nowhere
TTITLE9=Doc Watson - Tom Dooley
TTITLE10=Patsy Cline - Just Out Of Reach
TTITLE11=Don Williams - Spend Some Time With Me
TTITLE12=Willie Nelson - Home Is Where You're Happy
TTITLE13=Lynn Anderson - You Don't Have To Say You Love Me
EXTD=
EXTT0=
EXTT1=
EXTT2=
EXTT3=
EXTT4=
EXTT5=
EXTT6=
EXTT7=
EXTT8=
EXTT9=
EXTT10=
EXTT11=
EXTT12=
EXTT13=
PLAYORDER=
